<svg width="126" height="35" viewBox="0 0 126 35" fill="none" xmlns="http://www.w3.org/2000/svg">
<path d="M15.3806 0L0.148318 4.08147C-0.636624 11.284 1.31091 27.5037 15.3806 34.7625C29.4503 27.5037 31.3977 11.284 30.6127 4.08147L15.3806 0Z" fill="#1E65FA"/>
<path d="M15.3809 34.7625L15.3808 20.9135L15.3809 0L0.148706 4.08147C-0.636236 11.284 1.31118 27.5037 15.3809 34.7625Z" fill="#184197"/>
<mask id="mask0_17_6984" style="mask-type:alpha" maskUnits="userSpaceOnUse" x="0" y="0" width="31" height="35">
<path d="M15.3806 0L0.148318 4.08147C-0.636624 11.284 1.31091 27.5037 15.3806 34.7625C29.4503 27.5037 31.3977 11.284 30.6127 4.08147L15.3806 0Z" fill="black"/>
</mask>
<g mask="url(#mask0_17_6984)">
<rect x="2.1084" y="15.8744" width="3.29346" height="24.0423" fill="white"/>
<path d="M8.00293 20.0901H11.2964V44.5605H8.00293V20.0901Z" fill="#EEEEEE"/>
<rect x="13.8984" y="16.9613" width="3.29346" height="24.9644" fill="#F3FF43"/>
<rect x="19.7939" y="12.6139" width="3.29346" height="22.692" fill="#F3FF43"/>
<rect x="25.3271" y="0.790405" width="3.29346" height="24.7998" fill="#F3FF43"/>
</g>
<path d="M41.244 16V3.7825H36.4065V0.249999H50.514V3.7825H45.699V16H41.244ZM52.17 16V0.249999H59.37C60.81 0.249999 62.0475 0.482499 63.0825 0.947499C64.1325 1.4125 64.9425 2.0875 65.5125 2.9725C66.0825 3.8425 66.3675 4.8775 66.3675 6.0775C66.3675 7.2625 66.0825 8.29 65.5125 9.16C64.9425 10.015 64.1325 10.675 63.0825 11.14C62.0475 11.59 60.81 11.815 59.37 11.815H54.645L56.625 9.9475V16H52.17ZM61.9125 16L57.9975 10.2625H62.745L66.6825 16H61.9125ZM56.625 10.42L54.645 8.3725H59.1C60.03 8.3725 60.72 8.17 61.17 7.765C61.635 7.36 61.8675 6.7975 61.8675 6.0775C61.8675 5.3425 61.635 4.7725 61.17 4.3675C60.72 3.9625 60.03 3.76 59.1 3.76H54.645L56.625 1.7125V10.42ZM66.9315 16L73.884 0.249999H78.2715L85.2465 16H80.6115L75.1665 2.4325H76.9215L71.4765 16H66.9315ZM70.734 12.94L71.8815 9.655H79.5765L80.724 12.94H70.734ZM86.5058 16V0.249999H93.9533C95.6933 0.249999 97.2233 0.572499 98.5433 1.2175C99.8633 1.8625 100.891 2.77 101.626 3.94C102.376 5.11 102.751 6.505 102.751 8.125C102.751 9.73 102.376 11.125 101.626 12.31C100.891 13.48 99.8633 14.3875 98.5433 15.0325C97.2233 15.6775 95.6933 16 93.9533 16H86.5058ZM90.9608 12.445H93.7733C94.6733 12.445 95.4533 12.28 96.1133 11.95C96.7883 11.605 97.3133 11.11 97.6883 10.465C98.0633 9.805 98.2508 9.025 98.2508 8.125C98.2508 7.21 98.0633 6.43 97.6883 5.785C97.3133 5.14 96.7883 4.6525 96.1133 4.3225C95.4533 3.9775 94.6733 3.805 93.7733 3.805H90.9608V12.445ZM109.186 6.3475H116.498V9.6775H109.186V6.3475ZM109.501 12.5575H117.736V16H105.091V0.249999H117.443V3.6925H109.501V12.5575Z" fill="#1E65FA"/>
<path d="M43.1298 34.915C41.8848 34.915 40.7298 34.72 39.6648 34.33C38.5998 33.925 37.6773 33.355 36.8973 32.62C36.1323 31.885 35.5323 31.0225 35.0973 30.0325C34.6623 29.0275 34.4448 27.925 34.4448 26.725C34.4448 25.525 34.6623 24.43 35.0973 23.44C35.5323 22.435 36.1398 21.565 36.9198 20.83C37.6998 20.095 38.6223 19.5325 39.6873 19.1425C40.7673 18.7375 41.9448 18.535 43.2198 18.535C44.7048 18.535 46.0323 18.7825 47.2023 19.2775C48.3723 19.7725 49.3398 20.485 50.1048 21.415L47.2698 23.98C46.7298 23.395 46.1448 22.96 45.5148 22.675C44.8998 22.375 44.2098 22.225 43.4448 22.225C42.7698 22.225 42.1548 22.33 41.5998 22.54C41.0448 22.75 40.5723 23.0575 40.1823 23.4625C39.7923 23.8525 39.4848 24.325 39.2598 24.88C39.0498 25.42 38.9448 26.035 38.9448 26.725C38.9448 27.385 39.0498 27.9925 39.2598 28.5475C39.4848 29.1025 39.7923 29.5825 40.1823 29.9875C40.5723 30.3775 41.0373 30.685 41.5773 30.91C42.1323 31.12 42.7398 31.225 43.3998 31.225C44.0598 31.225 44.7048 31.12 45.3348 30.91C45.9648 30.685 46.6023 30.31 47.2473 29.785L49.7448 32.9125C48.8448 33.5575 47.8023 34.0525 46.6173 34.3975C45.4323 34.7425 44.2698 34.915 43.1298 34.915ZM45.8073 32.3275V26.3875H49.7448V32.9125L45.8073 32.3275ZM59.833 34.915C57.508 34.915 55.693 34.2775 54.388 33.0025C53.083 31.7275 52.4305 29.92 52.4305 27.58V18.85H56.8855V27.445C56.8855 28.795 57.148 29.7625 57.673 30.3475C58.213 30.9325 58.948 31.225 59.878 31.225C60.808 31.225 61.5355 30.9325 62.0605 30.3475C62.5855 29.7625 62.848 28.795 62.848 27.445V18.85H67.2355V27.58C67.2355 29.92 66.583 31.7275 65.278 33.0025C63.973 34.2775 62.158 34.915 59.833 34.915ZM68.0302 34.6L74.9827 18.85H79.3702L86.3452 34.6H81.7102L76.2652 21.0325H78.0202L72.5752 34.6H68.0302ZM71.8327 31.54L72.9802 28.255H80.6752L81.8227 31.54H71.8327ZM87.6044 34.6V18.85H94.8044C96.2444 18.85 97.4819 19.0825 98.5169 19.5475C99.5669 20.0125 100.377 20.6875 100.947 21.5725C101.517 22.4425 101.802 23.4775 101.802 24.6775C101.802 25.8625 101.517 26.89 100.947 27.76C100.377 28.615 99.5669 29.275 98.5169 29.74C97.4819 30.19 96.2444 30.415 94.8044 30.415H90.0794L92.0594 28.5475V34.6H87.6044ZM97.3469 34.6L93.4319 28.8625H98.1794L102.117 34.6H97.3469ZM92.0594 29.02L90.0794 26.9725H94.5344C95.4644 26.9725 96.1544 26.77 96.6044 26.365C97.0694 25.96 97.3019 25.3975 97.3019 24.6775C97.3019 23.9425 97.0694 23.3725 96.6044 22.9675C96.1544 22.5625 95.4644 22.36 94.5344 22.36H90.0794L92.0594 20.3125V29.02ZM104.256 34.6V18.85H111.703C113.443 18.85 114.973 19.1725 116.293 19.8175C117.613 20.4625 118.641 21.37 119.376 22.54C120.126 23.71 120.501 25.105 120.501 26.725C120.501 28.33 120.126 29.725 119.376 30.91C118.641 32.08 117.613 32.9875 116.293 33.6325C114.973 34.2775 113.443 34.6 111.703 34.6H104.256ZM108.711 31.045H111.523C112.423 31.045 113.203 30.88 113.863 30.55C114.538 30.205 115.063 29.71 115.438 29.065C115.813 28.405 116.001 27.625 116.001 26.725C116.001 25.81 115.813 25.03 115.438 24.385C115.063 23.74 114.538 23.2525 113.863 22.9225C113.203 22.5775 112.423 22.405 111.523 22.405H108.711V31.045Z" fill="black"/>
</svg>
