<svg width="31" height="23" viewBox="0 0 31 23" fill="none" xmlns="http://www.w3.org/2000/svg">
<g filter="url(#filter0_d_11_22)">
<path fill-rule="evenodd" clip-rule="evenodd" d="M15.3333 7.66667C16.8061 7.66667 18 8.86057 18 10.3333C18 11.8061 16.8061 13 15.3333 13C13.8606 13 12.6667 11.8061 12.6667 10.3333C12.6667 8.86057 13.8606 7.66667 15.3333 7.66667Z" fill="white"/>
<path fill-rule="evenodd" clip-rule="evenodd" d="M23.1606 17.4047C26.9465 13.5038 26.9465 7.16292 23.1606 3.26192C22.6477 2.73349 22.6604 1.88936 23.1888 1.37652C23.7172 0.863671 24.5614 0.87631 25.0742 1.40475C29.8641 6.34031 29.8641 14.3264 25.0742 19.2619C24.5614 19.7904 23.7172 19.803 23.1888 19.2902C22.6604 18.7773 22.6477 17.9332 23.1606 17.4047ZM19.7098 13.8493C21.59 11.912 21.59 8.75488 19.7098 6.81756C19.197 6.28912 19.2096 5.445 19.7381 4.93215C20.2665 4.41931 21.1106 4.43195 21.6235 4.96038C24.5077 7.93226 24.5077 12.7346 21.6235 15.7064C21.1106 16.2349 20.2665 16.2475 19.7381 15.7347C19.2096 15.2218 19.197 14.3777 19.7098 13.8493Z" fill="white"/>
<path fill-rule="evenodd" clip-rule="evenodd" d="M7.50609 17.4047C3.72019 13.5038 3.72019 7.16292 7.50609 3.26192C8.01894 2.73349 8.0063 1.88936 7.47786 1.37652C6.94942 0.863671 6.1053 0.87631 5.59245 1.40475C0.802516 6.34031 0.802516 14.3264 5.59245 19.2619C6.1053 19.7904 6.94942 19.803 7.47786 19.2902C8.0063 18.7773 8.01894 17.9332 7.50609 17.4047ZM10.9568 13.8493C9.07666 11.912 9.07666 8.75488 10.9568 6.81756C11.4697 6.28912 11.457 5.445 10.9286 4.93215C10.4002 4.41931 9.55602 4.43195 9.04318 4.96038C6.15898 7.93226 6.15898 12.7346 9.04318 15.7064C9.55602 16.2349 10.4002 16.2475 10.9286 15.7347C11.457 15.2218 11.4697 14.3777 10.9568 13.8493Z" fill="white"/>
</g>
<defs>
<filter id="filter0_d_11_22" x="0" y="0" width="30.6667" height="22.6666" filterUnits="userSpaceOnUse" color-interpolation-filters="sRGB">
<feFlood flood-opacity="0" result="BackgroundImageFix"/>
<feColorMatrix in="SourceAlpha" type="matrix" values="0 0 0 0 0 0 0 0 0 0 0 0 0 0 0 0 0 0 127 0" result="hardAlpha"/>
<feOffset dy="1"/>
<feGaussianBlur stdDeviation="1"/>
<feComposite in2="hardAlpha" operator="out"/>
<feColorMatrix type="matrix" values="0 0 0 0 0.0627451 0 0 0 0 0.0941176 0 0 0 0 0.156863 0 0 0 0.04 0"/>
<feBlend mode="normal" in2="BackgroundImageFix" result="effect1_dropShadow_11_22"/>
<feBlend mode="normal" in="SourceGraphic" in2="effect1_dropShadow_11_22" result="shape"/>
</filter>
</defs>
</svg>
