<svg width="20" height="20" viewBox="0 0 20 20" fill="none" xmlns="http://www.w3.org/2000/svg">
<path d="M7.50167 0.834961L12.5017 0.834961C14.8352 0.834961 16.002 0.834961 16.8933 1.2891C17.6773 1.68857 18.3147 2.32599 18.7142 3.11C19.1683 4.0013 19.1683 5.16808 19.1683 7.50163V12.5016C19.1683 14.8352 19.1683 16.002 18.7142 16.8933C18.3147 17.6773 17.6773 18.3147 16.8933 18.7142C16.002 19.1683 14.8352 19.1683 12.5017 19.1683H7.50167M7.50167 0.834961C5.16812 0.834961 4.00134 0.834961 3.11004 1.2891C2.32603 1.68857 1.68861 2.32599 1.28914 3.11C0.835001 4.0013 0.835001 5.16808 0.835001 7.50163L0.835001 12.5016C0.835001 14.8352 0.835001 16.002 1.28914 16.8933C1.68861 17.6773 2.32603 18.3147 3.11004 18.7142C4.00134 19.1683 5.16812 19.1683 7.50167 19.1683M7.50167 0.834961L7.50167 19.1683M7.50167 10.0016H19.1683" stroke="#858C95" stroke-width="1.67" stroke-linecap="round"/>
</svg>
